<?xml version="1.0" encoding="iso-8859-1"?>
<!-- Uploaded to: SVG Repo, www.svgrepo.com, Generator: SVG Repo Mixer Tools -->
<svg fill="#000000" version="1.1" id="Layer_1" xmlns="http://www.w3.org/2000/svg" xmlns:xlink="http://www.w3.org/1999/xlink" 
	 viewBox="0 0 512 512" xml:space="preserve">
<g>
	<g>
		<rect x="111.816" y="459.034" width="282.483" height="52.966"/>
	</g>
</g>
<g>
	<g>
		<polygon points="270.713,123.586 270.713,353.103 335.448,353.103 335.448,388.414 170.667,388.414 170.667,353.103 
			235.402,353.103 235.402,123.586 111.816,123.586 111.816,423.724 394.299,423.724 394.299,123.586 		"/>
	</g>
</g>
<g>
	<g>
		<path d="M459.034,123.586h-29.425v35.31h29.425v194.207h-29.425v35.31h29.425c19.47,0,35.31-15.84,35.31-35.31V158.897
			C494.345,139.426,478.505,123.586,459.034,123.586z"/>
	</g>
</g>
<g>
	<g>
		<polygon points="17.655,123.586 76.506,290.33 76.506,123.586 		"/>
	</g>
</g>
<g>
	<g>
		<path d="M275.644,30.119c0.61-2.09,0.953-4.294,0.953-6.578c0-12.98-10.56-23.54-23.54-23.54c-12.98,0-23.54,10.56-23.54,23.54
			c0,2.285,0.344,4.488,0.953,6.578c-68.057,4.27-108.738,27.967-117.041,58.157h279.255
			C384.383,58.086,343.703,34.389,275.644,30.119z"/>
	</g>
</g>
</svg>